# This file uses centimeters as units for non-parametric coordinates.

mtllib rock.mtl
g default
v 0.250000 -0.809699 -0.184860
v 0.095491 -0.811454 -0.293893
v -0.095492 -0.811454 -0.293893
v -0.250000 -0.811454 -0.181636
v -0.309017 -0.809277 -0.003998
v -0.250000 -0.794546 0.150579
v -0.095491 -0.777066 0.218881
v 0.095492 -0.773715 0.197737
v 0.250000 -0.778840 0.109388
v 0.309017 -0.795924 -0.028526
v 0.475528 -0.740175 -0.345492
v 0.181636 -0.734622 -0.557287
v -0.181636 -0.703583 -0.547448
v -0.477129 -0.733120 -0.343761
v -0.598487 -0.730010 0.000000
v -0.477129 -0.727547 0.325218
v -0.181636 -0.724254 0.456503
v 0.181636 -0.742150 0.408914
v 0.475528 -0.728630 0.248721
v 0.587785 -0.731102 -0.016793
v 0.654509 -0.575578 -0.475528
v 0.250000 -0.505772 -0.747042
v -0.250000 -0.372996 -0.704176
v -0.675210 -0.478358 -0.451612
v -0.869372 -0.507433 0.000000
v -0.675210 -0.550693 0.469233
v -0.250000 -0.603870 0.673591
v 0.250340 -0.662541 0.621751
v 0.662362 -0.612571 0.398119
v 0.825536 -0.564201 -0.001876
v 0.794351 -0.289323 -0.559017
v 0.293893 -0.143422 -0.852912
v -0.291998 0.113743 -0.772200
v -0.798298 -0.094844 -0.509369
v -1.046278 -0.161662 0.000000
v -0.816065 -0.248315 0.518570
v -0.293893 -0.374956 0.781242
v 0.306800 -0.461785 0.799528
v 0.824890 -0.373488 0.544790
v 1.022305 -0.243484 0.003075
v 0.855325 0.048654 -0.587785
v 0.310007 0.208266 -0.885812
v -0.276792 0.492287 -0.788140
v -0.804826 0.226752 -0.534693
v -1.061558 0.163685 0.000000
v -0.837586 0.067216 0.505868
v -0.309017 -0.065133 0.751968
v 0.344041 -0.153083 0.883980
v 0.940636 -0.018035 0.626121
v 1.088790 0.112682 0.008344
v 0.814721 0.369004 -0.559017
v 0.309332 0.456946 -0.852912
v -0.247388 0.686888 -0.772200
v -0.715524 0.454040 -0.520276
v -0.933435 0.414487 -0.004934
v -0.742893 0.336205 0.450415
v -0.285202 0.270911 0.639436
v 0.342914 0.213095 0.840548
v 0.920102 0.354569 0.590613
v 1.056447 0.444293 0.011679
v 0.716307 0.608816 -0.475528
v 0.294360 0.608851 -0.747042
v -0.185039 0.729969 -0.705389
v -0.538577 0.586594 -0.470926
v -0.690974 0.539108 -0.044364
v -0.558851 0.497495 0.335873
v -0.194906 0.484119 0.509012
v 0.305229 0.538149 0.681823
v 0.779642 0.642599 0.496925
v 0.907373 0.684519 0.010260
v 0.575749 0.734889 -0.355960
v 0.270824 0.697168 -0.571248
v -0.080691 0.721884 -0.572920
v -0.316313 0.641584 -0.400745
v -0.396228 0.575987 -0.102322
v -0.311894 0.557300 0.184801
v -0.074718 0.580556 0.348824
v 0.266963 0.665554 0.455434
v 0.590890 0.764722 0.331357
v 0.696626 0.785262 -0.007282
v 0.386159 0.735738 -0.240671
v 0.227908 0.717850 -0.359237
v 0.048448 0.696054 -0.376809
v -0.075988 0.652858 -0.291767
v -0.110810 0.609299 -0.136644
v -0.063443 0.599523 0.029446
v 0.055689 0.625869 0.141524
v 0.224994 0.672413 0.177643
v 0.389720 0.724926 0.101316
v 0.450363 0.747228 -0.063855
v 0.000000 -0.816316 -0.021649
v 0.162119 0.672996 -0.119716
vt 0.000000 0.100000
vt 0.100000 0.100000
vt 0.200000 0.100000
vt 0.300000 0.100000
vt 0.400000 0.100000
vt 0.500000 0.100000
vt 0.600000 0.100000
vt 0.700000 0.100000
vt 0.800000 0.100000
vt 0.900000 0.100000
vt 1.000000 0.100000
vt 0.000000 0.200000
vt 0.100000 0.200000
vt 0.200000 0.200000
vt 0.300000 0.200000
vt 0.400000 0.200000
vt 0.500000 0.200000
vt 0.600000 0.200000
vt 0.700000 0.200000
vt 0.800000 0.200000
vt 0.900000 0.200000
vt 1.000000 0.200000
vt 0.000000 0.300000
vt 0.100000 0.300000
vt 0.200000 0.300000
vt 0.300000 0.300000
vt 0.400000 0.300000
vt 0.500000 0.300000
vt 0.600000 0.300000
vt 0.700000 0.300000
vt 0.800000 0.300000
vt 0.900000 0.300000
vt 1.000000 0.300000
vt 0.000000 0.400000
vt 0.100000 0.400000
vt 0.200000 0.400000
vt 0.300000 0.400000
vt 0.400000 0.400000
vt 0.500000 0.400000
vt 0.600000 0.400000
vt 0.700000 0.400000
vt 0.800000 0.400000
vt 0.900000 0.400000
vt 1.000000 0.400000
vt 0.000000 0.500000
vt 0.100000 0.500000
vt 0.200000 0.500000
vt 0.300000 0.500000
vt 0.400000 0.500000
vt 0.500000 0.500000
vt 0.600000 0.500000
vt 0.700000 0.500000
vt 0.800000 0.500000
vt 0.900000 0.500000
vt 1.000000 0.500000
vt 0.000000 0.600000
vt 0.100000 0.600000
vt 0.200000 0.600000
vt 0.300000 0.600000
vt 0.400000 0.600000
vt 0.500000 0.600000
vt 0.600000 0.600000
vt 0.700000 0.600000
vt 0.800000 0.600000
vt 0.900000 0.600000
vt 1.000000 0.600000
vt 0.000000 0.700000
vt 0.100000 0.700000
vt 0.200000 0.700000
vt 0.300000 0.700000
vt 0.400000 0.700000
vt 0.500000 0.700000
vt 0.600000 0.700000
vt 0.700000 0.700000
vt 0.800000 0.700000
vt 0.900000 0.700000
vt 1.000000 0.700000
vt 0.000000 0.800000
vt 0.100000 0.800000
vt 0.200000 0.800000
vt 0.300000 0.800000
vt 0.400000 0.800000
vt 0.500000 0.800000
vt 0.600000 0.800000
vt 0.700000 0.800000
vt 0.800000 0.800000
vt 0.900000 0.800000
vt 1.000000 0.800000
vt 0.000000 0.900000
vt 0.100000 0.900000
vt 0.200000 0.900000
vt 0.300000 0.900000
vt 0.400000 0.900000
vt 0.500000 0.900000
vt 0.600000 0.900000
vt 0.700000 0.900000
vt 0.800000 0.900000
vt 0.900000 0.900000
vt 1.000000 0.900000
vt 0.050000 0.000000
vt 0.150000 0.000000
vt 0.250000 0.000000
vt 0.350000 0.000000
vt 0.450000 0.000000
vt 0.550000 0.000000
vt 0.650000 0.000000
vt 0.750000 0.000000
vt 0.850000 0.000000
vt 0.950000 0.000000
vt 0.050000 1.000000
vt 0.150000 1.000000
vt 0.250000 1.000000
vt 0.350000 1.000000
vt 0.450000 1.000000
vt 0.550000 1.000000
vt 0.650000 1.000000
vt 0.750000 1.000000
vt 0.850000 1.000000
vt 0.950000 1.000000
vn 0.150570 -0.963386 -0.221846
vn 0.150569 -0.963386 -0.221846
vn 0.150570 -0.963386 -0.221846
vn 0.150569 -0.963386 -0.221846
vn -0.058609 -0.940078 -0.335884
vn -0.058609 -0.940078 -0.335884
vn -0.058609 -0.940078 -0.335884
vn -0.058609 -0.940078 -0.335884
vn -0.152948 -0.939763 -0.305701
vn -0.152948 -0.939763 -0.305701
vn -0.152948 -0.939763 -0.305701
vn -0.152948 -0.939763 -0.305701
vn -0.267520 -0.959987 -0.082814
vn -0.267520 -0.959987 -0.082814
vn -0.267520 -0.959987 -0.082814
vn -0.267520 -0.959987 -0.082814
vn -0.231273 -0.965268 0.121536
vn -0.231273 -0.965268 0.121536
vn -0.231273 -0.965268 0.121536
vn -0.231273 -0.965268 0.121536
vn -0.060013 -0.969837 0.236252
vn -0.060013 -0.969837 0.236252
vn -0.060013 -0.969837 0.236252
vn -0.060013 -0.969837 0.236252
vn -0.002876 -0.982777 0.184771
vn -0.002876 -0.982778 0.184771
vn -0.002876 -0.982777 0.184771
vn -0.002876 -0.982778 0.184771
vn 0.097665 -0.984901 0.142938
vn 0.097665 -0.984901 0.142938
vn 0.097665 -0.984901 0.142938
vn 0.097665 -0.984901 0.142938
vn 0.184698 -0.974729 0.125660
vn 0.184698 -0.974729 0.125660
vn 0.184698 -0.974729 0.125660
vn 0.184698 -0.974729 0.125660
vn 0.245832 -0.968437 -0.041187
vn 0.245832 -0.968437 -0.041187
vn 0.245832 -0.968437 -0.041187
vn 0.245832 -0.968437 -0.041187
vn 0.345321 -0.713043 -0.610183
vn 0.345321 -0.713043 -0.610183
vn 0.345321 -0.713043 -0.610183
vn 0.345321 -0.713043 -0.610183
vn -0.150100 -0.520571 -0.840521
vn -0.150100 -0.520571 -0.840521
vn -0.150100 -0.520571 -0.840521
vn -0.150100 -0.520571 -0.840521
vn -0.385293 -0.519968 -0.762354
vn -0.385293 -0.519968 -0.762354
vn -0.385293 -0.519968 -0.762354
vn -0.385293 -0.519968 -0.762354
vn -0.651897 -0.704087 -0.281589
vn -0.651897 -0.704087 -0.281589
vn -0.651897 -0.704087 -0.281589
vn -0.651897 -0.704087 -0.281589
vn -0.599533 -0.775398 0.198289
vn -0.599533 -0.775398 0.198289
vn -0.599533 -0.775398 0.198289
vn -0.599533 -0.775398 0.198289
vn -0.280330 -0.832286 0.478241
vn -0.280330 -0.832286 0.478241
vn -0.280330 -0.832286 0.478241
vn -0.280330 -0.832286 0.478241
vn -0.031808 -0.906231 0.421584
vn -0.031808 -0.906231 0.421584
vn -0.031808 -0.906231 0.421584
vn -0.031808 -0.906231 0.421584
vn 0.253589 -0.914547 0.315113
vn 0.253589 -0.914547 0.315113
vn 0.253589 -0.914547 0.315113
vn 0.253589 -0.914547 0.315113
vn 0.506974 -0.848580 0.151294
vn 0.506974 -0.848580 0.151294
vn 0.506974 -0.848580 0.151294
vn 0.506974 -0.848580 0.151294
vn 0.580099 -0.793355 -0.184592
vn 0.580099 -0.793355 -0.184592
vn 0.580099 -0.793355 -0.184592
vn 0.580099 -0.793355 -0.184592
vn 0.429913 -0.363119 -0.826631
vn 0.429913 -0.363119 -0.826631
vn 0.429913 -0.363119 -0.826631
vn 0.429913 -0.363119 -0.826632
vn -0.180397 -0.196958 -0.963672
vn -0.180397 -0.196958 -0.963672
vn -0.180397 -0.196958 -0.963672
vn -0.180397 -0.196958 -0.963672
vn -0.419202 -0.207277 -0.883915
vn -0.419202 -0.207277 -0.883915
vn -0.419202 -0.207277 -0.883915
vn -0.419202 -0.207277 -0.883915
vn -0.827922 -0.373689 -0.418212
vn -0.827922 -0.373689 -0.418212
vn -0.827922 -0.373689 -0.418212
vn -0.827922 -0.373689 -0.418212
vn -0.845520 -0.437792 0.305671
vn -0.845520 -0.437792 0.305671
vn -0.845520 -0.437792 0.305671
vn -0.845520 -0.437792 0.305671
vn -0.465396 -0.395766 0.791692
vn -0.465396 -0.395766 0.791692
vn -0.465396 -0.395766 0.791692
vn -0.465396 -0.395766 0.791692
vn -0.047537 -0.551741 0.832659
vn -0.047537 -0.551741 0.832659
vn -0.047537 -0.551741 0.832659
vn -0.047537 -0.551741 0.832659
vn 0.417442 -0.664807 0.619495
vn 0.417442 -0.664807 0.619495
vn 0.417442 -0.664807 0.619495
vn 0.417442 -0.664807 0.619495
vn 0.799437 -0.566928 0.198726
vn 0.799437 -0.566928 0.198726
vn 0.799437 -0.566928 0.198726
vn 0.799437 -0.566928 0.198726
vn 0.820858 -0.492622 -0.288990
vn 0.820858 -0.492622 -0.288990
vn 0.820858 -0.492622 -0.288990
vn 0.820858 -0.492622 -0.288990
vn 0.459390 -0.129918 -0.878682
vn 0.459390 -0.129918 -0.878682
vn 0.459390 -0.129918 -0.878682
vn 0.459390 -0.129918 -0.878682
vn -0.176310 -0.058157 -0.982615
vn -0.176310 -0.058157 -0.982615
vn -0.176310 -0.058157 -0.982615
vn -0.176310 -0.058157 -0.982615
vn -0.428435 -0.047868 -0.902304
vn -0.428435 -0.047868 -0.902304
vn -0.428435 -0.047868 -0.902304
vn -0.428435 -0.047868 -0.902304
vn -0.896982 -0.047440 -0.439514
vn -0.896982 -0.047440 -0.439514
vn -0.896982 -0.047440 -0.439514
vn -0.896982 -0.047440 -0.439514
vn -0.916205 -0.044718 0.398207
vn -0.916205 -0.044718 0.398207
vn -0.916205 -0.044718 0.398207
vn -0.916205 -0.044718 0.398207
vn -0.428426 0.035500 0.902879
vn -0.428426 0.035500 0.902879
vn -0.428426 0.035500 0.902879
vn -0.428426 0.035500 0.902879
vn -0.130077 -0.083485 0.987983
vn -0.130077 -0.083485 0.987983
vn -0.130077 -0.083485 0.987983
vn -0.130077 -0.083485 0.987983
vn 0.447842 -0.312287 0.837803
vn 0.447842 -0.312287 0.837803
vn 0.447842 -0.312287 0.837803
vn 0.447842 -0.312287 0.837803
vn 0.938335 -0.267015 0.219617
vn 0.938335 -0.267015 0.219617
vn 0.938335 -0.267015 0.219617
vn 0.938335 -0.267015 0.219617
vn 0.919480 -0.180657 -0.349170
vn 0.919480 -0.180657 -0.349170
vn 0.919480 -0.180657 -0.349170
vn 0.919480 -0.180657 -0.349170
vn 0.509642 0.129158 -0.850637
vn 0.509642 0.129158 -0.850637
vn 0.509642 0.129158 -0.850637
vn 0.509642 0.129158 -0.850637
vn -0.102224 0.115484 -0.988035
vn -0.102224 0.115484 -0.988035
vn -0.102224 0.115484 -0.988035
vn -0.102224 0.115484 -0.988035
vn -0.522909 0.206631 -0.826964
vn -0.522909 0.206631 -0.826964
vn -0.522909 0.206631 -0.826964
vn -0.522909 0.206631 -0.826964
vn -0.851348 0.394042 -0.346321
vn -0.851348 0.394042 -0.346321
vn -0.851348 0.394042 -0.346321
vn -0.851347 0.394042 -0.346321
vn -0.813849 0.398048 0.423329
vn -0.813849 0.398048 0.423329
vn -0.813849 0.398048 0.423329
vn -0.813849 0.398048 0.423329
vn -0.330452 0.312037 0.890749
vn -0.330452 0.312037 0.890749
vn -0.330452 0.312037 0.890749
vn -0.330452 0.312037 0.890749
vn -0.222251 0.218232 0.950252
vn -0.222251 0.218232 0.950252
vn -0.222251 0.218232 0.950252
vn -0.222251 0.218232 0.950252
vn 0.372850 0.109387 0.921421
vn 0.372850 0.109387 0.921421
vn 0.372850 0.109387 0.921421
vn 0.372850 0.109387 0.921421
vn 0.965890 0.083720 0.245047
vn 0.965890 0.083720 0.245047
vn 0.965890 0.083720 0.245048
vn 0.965890 0.083720 0.245047
vn 0.914156 0.121330 -0.386779
vn 0.914156 0.121330 -0.386779
vn 0.914156 0.121330 -0.386779
vn 0.914156 0.121330 -0.386779
vn 0.487141 0.490350 -0.722669
vn 0.487141 0.490350 -0.722669
vn 0.487141 0.490350 -0.722669
vn 0.487141 0.490350 -0.722669
vn 0.127386 0.640064 -0.757688
vn 0.127386 0.640064 -0.757688
vn 0.127386 0.640064 -0.757688
vn 0.127386 0.640064 -0.757688
vn -0.508458 0.834134 -0.213752
vn -0.508458 0.834134 -0.213752
vn -0.508458 0.834134 -0.213752
vn -0.508458 0.834134 -0.213752
vn -0.516504 0.847145 -0.124780
vn -0.516504 0.847145 -0.124780
vn -0.516504 0.847145 -0.124780
vn -0.516504 0.847145 -0.124780
vn -0.455669 0.839355 0.296394
vn -0.455669 0.839355 0.296394
vn -0.455669 0.839355 0.296394
vn -0.455669 0.839355 0.296394
vn -0.252505 0.652393 0.714580
vn -0.252505 0.652393 0.714580
vn -0.252505 0.652393 0.714580
vn -0.252505 0.652393 0.714580
vn -0.275281 0.475690 0.835428
vn -0.275281 0.475690 0.835428
vn -0.275281 0.475690 0.835428
vn -0.275281 0.475690 0.835428
vn 0.256957 0.430826 0.865079
vn 0.256957 0.430826 0.865079
vn 0.256957 0.430826 0.865079
vn 0.256957 0.430826 0.865079
vn 0.824334 0.499706 0.266020
vn 0.824334 0.499706 0.266020
vn 0.824334 0.499706 0.266020
vn 0.824334 0.499706 0.266020
vn 0.789146 0.473694 -0.390977
vn 0.789146 0.473694 -0.390977
vn 0.789146 0.473694 -0.390977
vn 0.789146 0.473694 -0.390977
vn 0.267241 0.844344 -0.464398
vn 0.267241 0.844344 -0.464398
vn 0.267241 0.844344 -0.464398
vn 0.267241 0.844344 -0.464398
vn 0.152267 0.946012 -0.286139
vn 0.152267 0.946012 -0.286139
vn 0.152267 0.946012 -0.286139
vn 0.152267 0.946012 -0.286139
vn -0.243730 0.954488 0.171895
vn -0.243730 0.954488 0.171895
vn -0.243730 0.954488 0.171895
vn -0.243730 0.954488 0.171895
vn -0.176345 0.979607 0.096291
vn -0.176345 0.979607 0.096291
vn -0.176345 0.979607 0.096291
vn -0.176345 0.979607 0.096291
vn -0.125545 0.983588 0.129592
vn -0.125545 0.983588 0.129592
vn -0.125545 0.983588 0.129592
vn -0.125545 0.983587 0.129592
vn -0.169721 0.946386 0.274862
vn -0.169721 0.946385 0.274862
vn -0.169721 0.946386 0.274862
vn -0.169721 0.946386 0.274862
vn -0.285261 0.854413 0.434286
vn -0.285261 0.854413 0.434286
vn -0.285261 0.854413 0.434286
vn -0.285261 0.854413 0.434286
vn -0.005960 0.841982 0.539474
vn -0.005960 0.841982 0.539474
vn -0.005960 0.841981 0.539474
vn -0.005960 0.841982 0.539474
vn 0.413041 0.891860 0.184342
vn 0.413041 0.891860 0.184342
vn 0.413041 0.891860 0.184342
vn 0.413041 0.891860 0.184342
vn 0.455531 0.839188 -0.297079
vn 0.455531 0.839188 -0.297079
vn 0.455531 0.839188 -0.297079
vn 0.455531 0.839187 -0.297079
vn -0.047750 0.993911 -0.099305
vn -0.047750 0.993911 -0.099305
vn -0.047750 0.993911 -0.099305
vn -0.047750 0.993911 -0.099305
vn 0.005080 0.999921 0.011540
vn 0.005080 0.999921 0.011540
vn 0.005080 0.999921 0.011540
vn 0.005080 0.999921 0.011540
vn -0.158705 0.958234 0.237911
vn -0.158705 0.958234 0.237911
vn -0.158705 0.958234 0.237911
vn -0.158705 0.958233 0.237911
vn -0.111665 0.972216 0.205737
vn -0.111665 0.972216 0.205737
vn -0.111665 0.972216 0.205737
vn -0.111665 0.972216 0.205737
vn -0.106929 0.989885 0.093239
vn -0.106929 0.989885 0.093239
vn -0.106929 0.989885 0.093239
vn -0.106929 0.989885 0.093239
vn -0.177196 0.982795 0.052110
vn -0.177196 0.982795 0.052110
vn -0.177196 0.982795 0.052110
vn -0.177196 0.982795 0.052110
vn -0.263439 0.963075 0.055550
vn -0.263439 0.963075 0.055550
vn -0.263439 0.963075 0.055550
vn -0.263439 0.963075 0.055550
vn -0.270527 0.960362 0.067236
vn -0.270527 0.960362 0.067236
vn -0.270527 0.960362 0.067236
vn -0.270527 0.960362 0.067236
vn -0.185224 0.982442 0.022373
vn -0.185224 0.982442 0.022373
vn -0.185224 0.982442 0.022373
vn -0.185224 0.982442 0.022373
vn -0.095811 0.991931 -0.083029
vn -0.095811 0.991931 -0.083029
vn -0.095811 0.991931 -0.083029
vn -0.095811 0.991931 -0.083029
vn 0.019203 -0.999754 -0.011118
vn 0.019203 -0.999754 -0.011118
vn 0.019203 -0.999754 -0.011118
vn -0.000000 -0.999841 -0.017855
vn -0.000000 -0.999841 -0.017855
vn -0.000000 -0.999841 -0.017855
vn -0.010338 -0.999845 -0.014229
vn -0.010338 -0.999845 -0.014229
vn -0.010338 -0.999845 -0.014229
vn -0.022498 -0.999735 0.004776
vn -0.022498 -0.999735 0.004776
vn -0.022498 -0.999735 0.004776
vn -0.016873 -0.994719 0.101239
vn -0.016873 -0.994719 0.101239
vn -0.016873 -0.994719 0.101239
vn 0.034321 -0.984110 0.174211
vn 0.034321 -0.984110 0.174211
vn 0.034321 -0.984110 0.174211
vn 0.036653 -0.983869 0.175097
vn 0.036653 -0.983869 0.175097
vn 0.036653 -0.983869 0.175097
vn 0.061376 -0.984474 0.164453
vn 0.061376 -0.984474 0.164453
vn 0.061376 -0.984474 0.164453
vn 0.068443 -0.986095 0.151435
vn 0.068443 -0.986095 0.151435
vn 0.068443 -0.986095 0.151435
vn 0.067102 -0.995792 0.062411
vn 0.067102 -0.995792 0.062411
vn 0.067102 -0.995792 0.062411
vn -0.203980 0.970861 0.125780
vn -0.203980 0.970861 0.125780
vn -0.203980 0.970861 0.125780
vn -0.133424 0.980112 0.146893
vn -0.133424 0.980112 0.146893
vn -0.133424 0.980112 0.146893
vn -0.210925 0.960892 0.179434
vn -0.210925 0.960892 0.179434
vn -0.210925 0.960892 0.179434
vn -0.234577 0.948331 0.213639
vn -0.234577 0.948331 0.213639
vn -0.234577 0.948331 0.213639
vn -0.232785 0.964697 0.123166
vn -0.232785 0.964697 0.123166
vn -0.232785 0.964697 0.123166
vn -0.271382 0.960427 0.062697
vn -0.271382 0.960427 0.062697
vn -0.271382 0.960427 0.062697
vn -0.276545 0.959104 0.060355
vn -0.276545 0.959104 0.060355
vn -0.276545 0.959104 0.060355
vn -0.277586 0.958789 0.060575
vn -0.277586 0.958789 0.060575
vn -0.277586 0.958789 0.060575
vn -0.255854 0.966026 0.036496
vn -0.255854 0.966026 0.036496
vn -0.255854 0.966026 0.036496
vn -0.254670 0.966573 0.029664
vn -0.254670 0.966573 0.029664
vn -0.254670 0.966573 0.029664
s off
g pSphere1
usemtl lambert2SG
f 1/1/1 2/2/2 12/13/3 11/12/4
f 2/2/5 3/3/6 13/14/7 12/13/8
f 3/3/9 4/4/10 14/15/11 13/14/12
f 4/4/13 5/5/14 15/16/15 14/15/16
f 5/5/17 6/6/18 16/17/19 15/16/20
f 6/6/21 7/7/22 17/18/23 16/17/24
f 7/7/25 8/8/26 18/19/27 17/18/28
f 8/8/29 9/9/30 19/20/31 18/19/32
f 9/9/33 10/10/34 20/21/35 19/20/36
f 10/10/37 1/11/38 11/22/39 20/21/40
f 11/12/41 12/13/42 22/24/43 21/23/44
f 12/13/45 13/14/46 23/25/47 22/24/48
f 13/14/49 14/15/50 24/26/51 23/25/52
f 14/15/53 15/16/54 25/27/55 24/26/56
f 15/16/57 16/17/58 26/28/59 25/27/60
f 16/17/61 17/18/62 27/29/63 26/28/64
f 17/18/65 18/19/66 28/30/67 27/29/68
f 18/19/69 19/20/70 29/31/71 28/30/72
f 19/20/73 20/21/74 30/32/75 29/31/76
f 20/21/77 11/22/78 21/33/79 30/32/80
f 21/23/81 22/24/82 32/35/83 31/34/84
f 22/24/85 23/25/86 33/36/87 32/35/88
f 23/25/89 24/26/90 34/37/91 33/36/92
f 24/26/93 25/27/94 35/38/95 34/37/96
f 25/27/97 26/28/98 36/39/99 35/38/100
f 26/28/101 27/29/102 37/40/103 36/39/104
f 27/29/105 28/30/106 38/41/107 37/40/108
f 28/30/109 29/31/110 39/42/111 38/41/112
f 29/31/113 30/32/114 40/43/115 39/42/116
f 30/32/117 21/33/118 31/44/119 40/43/120
f 31/34/121 32/35/122 42/46/123 41/45/124
f 32/35/125 33/36/126 43/47/127 42/46/128
f 33/36/129 34/37/130 44/48/131 43/47/132
f 34/37/133 35/38/134 45/49/135 44/48/136
f 35/38/137 36/39/138 46/50/139 45/49/140
f 36/39/141 37/40/142 47/51/143 46/50/144
f 37/40/145 38/41/146 48/52/147 47/51/148
f 38/41/149 39/42/150 49/53/151 48/52/152
f 39/42/153 40/43/154 50/54/155 49/53/156
f 40/43/157 31/44/158 41/55/159 50/54/160
f 41/45/161 42/46/162 52/57/163 51/56/164
f 42/46/165 43/47/166 53/58/167 52/57/168
f 43/47/169 44/48/170 54/59/171 53/58/172
f 44/48/173 45/49/174 55/60/175 54/59/176
f 45/49/177 46/50/178 56/61/179 55/60/180
f 46/50/181 47/51/182 57/62/183 56/61/184
f 47/51/185 48/52/186 58/63/187 57/62/188
f 48/52/189 49/53/190 59/64/191 58/63/192
f 49/53/193 50/54/194 60/65/195 59/64/196
f 50/54/197 41/55/198 51/66/199 60/65/200
f 51/56/201 52/57/202 62/68/203 61/67/204
f 52/57/205 53/58/206 63/69/207 62/68/208
f 53/58/209 54/59/210 64/70/211 63/69/212
f 54/59/213 55/60/214 65/71/215 64/70/216
f 55/60/217 56/61/218 66/72/219 65/71/220
f 56/61/221 57/62/222 67/73/223 66/72/224
f 57/62/225 58/63/226 68/74/227 67/73/228
f 58/63/229 59/64/230 69/75/231 68/74/232
f 59/64/233 60/65/234 70/76/235 69/75/236
f 60/65/237 51/66/238 61/77/239 70/76/240
f 61/67/241 62/68/242 72/79/243 71/78/244
f 62/68/245 63/69/246 73/80/247 72/79/248
f 63/69/249 64/70/250 74/81/251 73/80/252
f 64/70/253 65/71/254 75/82/255 74/81/256
f 65/71/257 66/72/258 76/83/259 75/82/260
f 66/72/261 67/73/262 77/84/263 76/83/264
f 67/73/265 68/74/266 78/85/267 77/84/268
f 68/74/269 69/75/270 79/86/271 78/85/272
f 69/75/273 70/76/274 80/87/275 79/86/276
f 70/76/277 61/77/278 71/88/279 80/87/280
f 71/78/281 72/79/282 82/90/283 81/89/284
f 72/79/285 73/80/286 83/91/287 82/90/288
f 73/80/289 74/81/290 84/92/291 83/91/292
f 74/81/293 75/82/294 85/93/295 84/92/296
f 75/82/297 76/83/298 86/94/299 85/93/300
f 76/83/301 77/84/302 87/95/303 86/94/304
f 77/84/305 78/85/306 88/96/307 87/95/308
f 78/85/309 79/86/310 89/97/311 88/96/312
f 79/86/313 80/87/314 90/98/315 89/97/316
f 80/87/317 71/88/318 81/99/319 90/98/320
f 2/2/321 1/1/322 91/100/323
f 3/3/324 2/2/325 91/101/326
f 4/4/327 3/3/328 91/102/329
f 5/5/330 4/4/331 91/103/332
f 6/6/333 5/5/334 91/104/335
f 7/7/336 6/6/337 91/105/338
f 8/8/339 7/7/340 91/106/341
f 9/9/342 8/8/343 91/107/344
f 10/10/345 9/9/346 91/108/347
f 1/11/348 10/10/349 91/109/350
f 81/89/351 82/90/352 92/110/353
f 82/90/354 83/91/355 92/111/356
f 83/91/357 84/92/358 92/112/359
f 84/92/360 85/93/361 92/113/362
f 85/93/363 86/94/364 92/114/365
f 86/94/366 87/95/367 92/115/368
f 87/95/369 88/96/370 92/116/371
f 88/96/372 89/97/373 92/117/374
f 89/97/375 90/98/376 92/118/377
f 90/98/378 81/99/379 92/119/380
