# This file uses centimeters as units for non-parametric coordinates.

mtllib rock.mtl
g default
v 0.298650 -0.789639 -0.298128
v 0.129750 -0.780823 -0.404645
v -0.079088 -0.769692 -0.397291
v -0.230846 -0.768133 -0.282212
v -0.292829 -0.748131 -0.108236
v -0.237960 -0.699246 0.055083
v -0.083422 -0.670025 0.156719
v 0.107533 -0.697661 0.166764
v 0.269865 -0.752922 0.069699
v 0.348755 -0.784179 -0.112938
v 0.561836 -0.767592 -0.427791
v 0.228475 -0.744018 -0.623502
v -0.164490 -0.720473 -0.607992
v -0.421217 -0.724833 -0.387052
v -0.557613 -0.700768 -0.051852
v -0.478992 -0.595123 0.260330
v -0.176933 -0.503133 0.432037
v 0.187676 -0.583497 0.459773
v 0.484926 -0.701395 0.286942
v 0.642219 -0.748067 -0.069587
v 0.781348 -0.648765 -0.534606
v 0.307206 -0.614372 -0.772595
v -0.216440 -0.578966 -0.750692
v -0.526511 -0.588900 -0.461001
v -0.774651 -0.583045 0.019873
v -0.706109 -0.489252 0.489863
v -0.266691 -0.326808 0.689730
v 0.251195 -0.426158 0.707610
v 0.655869 -0.564175 0.463694
v 0.871087 -0.609707 -0.034259
v 0.917404 -0.404688 -0.605095
v 0.341210 -0.380304 -0.787466
v -0.229704 -0.350275 -0.746845
v -0.542882 -0.345325 -0.492470
v -0.914885 -0.359133 0.062373
v -0.875367 -0.331848 0.672228
v -0.332767 -0.141152 0.883457
v 0.294682 -0.209279 0.868579
v 0.775832 -0.287917 0.554212
v 0.979817 -0.346867 -0.046460
v 0.891467 -0.090358 -0.567568
v 0.313083 -0.097946 -0.650252
v -0.226070 -0.082972 -0.613125
v -0.562952 -0.043192 -0.481112
v -0.990318 -0.049028 0.037129
v -0.940823 -0.108660 0.755147
v -0.354676 0.042206 0.984714
v 0.342225 0.056610 0.943910
v 0.838559 0.119395 0.557341
v 0.939501 0.021002 -0.079174
v 0.736006 0.240073 -0.438301
v 0.250251 0.210723 -0.493262
v -0.247510 0.217291 -0.505930
v -0.619676 0.289025 -0.480292
v -0.993243 0.305885 -0.046979
v -0.897138 0.195306 0.677792
v -0.318267 0.249449 0.959554
v 0.391873 0.398670 0.908357
v 0.866013 0.548699 0.515804
v 0.851864 0.425712 -0.079527
v 0.579351 0.541198 -0.345242
v 0.195119 0.495920 -0.419173
v -0.271123 0.511718 -0.484044
v -0.632877 0.581688 -0.460867
v -0.895926 0.611388 -0.115327
v -0.758358 0.508884 0.477735
v -0.230669 0.487582 0.797605
v 0.395302 0.687950 0.775786
v 0.819030 0.873013 0.445291
v 0.787626 0.748634 -0.070228
v 0.431501 0.698742 -0.255564
v 0.142409 0.642282 -0.325996
v -0.229620 0.665684 -0.395638
v -0.518935 0.717725 -0.364823
v -0.676275 0.737719 -0.117649
v -0.546941 0.661319 0.288392
v -0.137538 0.628761 0.558943
v 0.322727 0.792552 0.566943
v 0.620680 0.960231 0.326166
v 0.616283 0.874603 -0.042482
v 0.250135 0.719266 -0.125603
v 0.075745 0.679728 -0.185791
v -0.135908 0.692365 -0.226945
v -0.299745 0.716310 -0.202874
v -0.363283 0.720044 -0.075981
v -0.279124 0.685650 0.124181
v -0.057421 0.675483 0.276899
v 0.186083 0.738550 0.299819
v 0.332137 0.810216 0.175421
v 0.345873 0.791007 -0.003066
v 0.018455 -0.767772 -0.129840
v 0.012839 0.686574 -0.000892
vt 0.000000 0.100000
vt 0.100000 0.100000
vt 0.200000 0.100000
vt 0.300000 0.100000
vt 0.400000 0.100000
vt 0.500000 0.100000
vt 0.600000 0.100000
vt 0.700000 0.100000
vt 0.800000 0.100000
vt 0.900000 0.100000
vt 1.000000 0.100000
vt 0.000000 0.200000
vt 0.100000 0.200000
vt 0.200000 0.200000
vt 0.300000 0.200000
vt 0.400000 0.200000
vt 0.500000 0.200000
vt 0.600000 0.200000
vt 0.700000 0.200000
vt 0.800000 0.200000
vt 0.900000 0.200000
vt 1.000000 0.200000
vt 0.000000 0.300000
vt 0.100000 0.300000
vt 0.200000 0.300000
vt 0.300000 0.300000
vt 0.400000 0.300000
vt 0.500000 0.300000
vt 0.600000 0.300000
vt 0.700000 0.300000
vt 0.800000 0.300000
vt 0.900000 0.300000
vt 1.000000 0.300000
vt 0.000000 0.400000
vt 0.100000 0.400000
vt 0.200000 0.400000
vt 0.300000 0.400000
vt 0.400000 0.400000
vt 0.500000 0.400000
vt 0.600000 0.400000
vt 0.700000 0.400000
vt 0.800000 0.400000
vt 0.900000 0.400000
vt 1.000000 0.400000
vt 0.000000 0.500000
vt 0.100000 0.500000
vt 0.200000 0.500000
vt 0.300000 0.500000
vt 0.400000 0.500000
vt 0.500000 0.500000
vt 0.600000 0.500000
vt 0.700000 0.500000
vt 0.800000 0.500000
vt 0.900000 0.500000
vt 1.000000 0.500000
vt 0.000000 0.600000
vt 0.100000 0.600000
vt 0.200000 0.600000
vt 0.300000 0.600000
vt 0.400000 0.600000
vt 0.500000 0.600000
vt 0.600000 0.600000
vt 0.700000 0.600000
vt 0.800000 0.600000
vt 0.900000 0.600000
vt 1.000000 0.600000
vt 0.000000 0.700000
vt 0.100000 0.700000
vt 0.200000 0.700000
vt 0.300000 0.700000
vt 0.400000 0.700000
vt 0.500000 0.700000
vt 0.600000 0.700000
vt 0.700000 0.700000
vt 0.800000 0.700000
vt 0.900000 0.700000
vt 1.000000 0.700000
vt 0.000000 0.800000
vt 0.100000 0.800000
vt 0.200000 0.800000
vt 0.300000 0.800000
vt 0.400000 0.800000
vt 0.500000 0.800000
vt 0.600000 0.800000
vt 0.700000 0.800000
vt 0.800000 0.800000
vt 0.900000 0.800000
vt 1.000000 0.800000
vt 0.000000 0.900000
vt 0.100000 0.900000
vt 0.200000 0.900000
vt 0.300000 0.900000
vt 0.400000 0.900000
vt 0.500000 0.900000
vt 0.600000 0.900000
vt 0.700000 0.900000
vt 0.800000 0.900000
vt 0.900000 0.900000
vt 1.000000 0.900000
vt 0.050000 0.000000
vt 0.150000 0.000000
vt 0.250000 0.000000
vt 0.350000 0.000000
vt 0.450000 0.000000
vt 0.550000 0.000000
vt 0.650000 0.000000
vt 0.750000 0.000000
vt 0.850000 0.000000
vt 0.950000 0.000000
vt 0.050000 1.000000
vt 0.150000 1.000000
vt 0.250000 1.000000
vt 0.350000 1.000000
vt 0.450000 1.000000
vt 0.550000 1.000000
vt 0.650000 1.000000
vt 0.750000 1.000000
vt 0.850000 1.000000
vt 0.950000 1.000000
vn 0.022602 -0.989378 -0.143595
vn 0.022602 -0.989378 -0.143595
vn 0.022602 -0.989378 -0.143595
vn 0.022602 -0.989378 -0.143595
vn -0.063878 -0.978146 -0.197865
vn -0.063878 -0.978146 -0.197865
vn -0.063878 -0.978146 -0.197865
vn -0.063878 -0.978146 -0.197865
vn -0.133112 -0.976419 -0.169959
vn -0.133113 -0.976420 -0.169959
vn -0.133113 -0.976419 -0.169959
vn -0.133112 -0.976419 -0.169959
vn -0.196209 -0.980526 0.008413
vn -0.196209 -0.980526 0.008413
vn -0.196209 -0.980526 0.008413
vn -0.196209 -0.980526 0.008413
vn -0.107421 -0.936278 0.334433
vn -0.107421 -0.936278 0.334433
vn -0.107421 -0.936278 0.334432
vn -0.107421 -0.936278 0.334432
vn -0.044975 -0.883226 0.466786
vn -0.044975 -0.883226 0.466786
vn -0.044975 -0.883226 0.466786
vn -0.044975 -0.883226 0.466786
vn -0.200361 -0.880068 0.430508
vn -0.200361 -0.880068 0.430507
vn -0.200360 -0.880068 0.430507
vn -0.200361 -0.880068 0.430507
vn -0.127672 -0.919261 0.372370
vn -0.127672 -0.919261 0.372370
vn -0.127672 -0.919261 0.372370
vn -0.127672 -0.919261 0.372370
vn 0.078746 -0.981180 0.176311
vn 0.078746 -0.981180 0.176311
vn 0.078746 -0.981180 0.176311
vn 0.078746 -0.981180 0.176311
vn 0.106963 -0.994061 0.020022
vn 0.106963 -0.994061 0.020022
vn 0.106963 -0.994061 0.020022
vn 0.106963 -0.994061 0.020022
vn 0.226037 -0.817260 -0.530088
vn 0.226037 -0.817260 -0.530088
vn 0.226037 -0.817260 -0.530088
vn 0.226037 -0.817260 -0.530088
vn -0.074618 -0.727074 -0.682492
vn -0.074618 -0.727074 -0.682492
vn -0.074618 -0.727074 -0.682492
vn -0.074618 -0.727074 -0.682492
vn -0.472837 -0.692981 -0.544244
vn -0.472837 -0.692981 -0.544244
vn -0.472837 -0.692981 -0.544244
vn -0.472837 -0.692981 -0.544244
vn -0.597141 -0.761035 -0.253474
vn -0.597141 -0.761035 -0.253474
vn -0.597141 -0.761035 -0.253474
vn -0.597141 -0.761035 -0.253474
vn -0.269558 -0.919770 0.285240
vn -0.269558 -0.919770 0.285239
vn -0.269558 -0.919770 0.285239
vn -0.269558 -0.919770 0.285239
vn 0.034112 -0.855050 0.517422
vn 0.034112 -0.855050 0.517422
vn 0.034112 -0.855050 0.517422
vn 0.034112 -0.855050 0.517422
vn -0.195195 -0.823172 0.533186
vn -0.195195 -0.823172 0.533186
vn -0.195195 -0.823172 0.533186
vn -0.195195 -0.823172 0.533186
vn 0.029527 -0.828842 0.558703
vn 0.029527 -0.828842 0.558703
vn 0.029527 -0.828842 0.558703
vn 0.029527 -0.828842 0.558703
vn 0.438003 -0.853261 0.283019
vn 0.438003 -0.853261 0.283019
vn 0.438003 -0.853261 0.283019
vn 0.438003 -0.853261 0.283019
vn 0.492589 -0.869420 -0.038281
vn 0.492589 -0.869420 -0.038281
vn 0.492589 -0.869420 -0.038281
vn 0.492589 -0.869420 -0.038281
vn 0.342853 -0.281915 -0.896089
vn 0.342853 -0.281915 -0.896089
vn 0.342853 -0.281915 -0.896089
vn 0.342853 -0.281915 -0.896089
vn -0.058278 -0.021163 -0.998076
vn -0.058278 -0.021163 -0.998076
vn -0.058278 -0.021163 -0.998076
vn -0.058278 -0.021163 -0.998076
vn -0.654864 -0.085014 -0.750950
vn -0.654864 -0.085014 -0.750950
vn -0.654864 -0.085014 -0.750950
vn -0.654864 -0.085014 -0.750950
vn -0.826367 -0.265102 -0.496829
vn -0.826367 -0.265102 -0.496829
vn -0.826367 -0.265102 -0.496829
vn -0.826367 -0.265102 -0.496829
vn -0.723377 -0.674403 0.148006
vn -0.723377 -0.674403 0.148006
vn -0.723377 -0.674403 0.148006
vn -0.723377 -0.674403 0.148006
vn -0.013096 -0.742811 0.669374
vn -0.013096 -0.742811 0.669374
vn -0.013096 -0.742811 0.669374
vn -0.013096 -0.742811 0.669374
vn -0.098605 -0.661004 0.743876
vn -0.098605 -0.661004 0.743876
vn -0.098605 -0.661004 0.743876
vn -0.098605 -0.661004 0.743876
vn 0.362842 -0.515981 0.775957
vn 0.362842 -0.515981 0.775957
vn 0.362842 -0.515981 0.775957
vn 0.362842 -0.515981 0.775957
vn 0.839304 -0.408208 0.359075
vn 0.839304 -0.408208 0.359075
vn 0.839304 -0.408208 0.359075
vn 0.839304 -0.408208 0.359075
vn 0.891403 -0.444707 -0.087391
vn 0.891403 -0.444707 -0.087391
vn 0.891403 -0.444707 -0.087391
vn 0.891403 -0.444707 -0.087391
vn 0.218007 0.292429 -0.931106
vn 0.218007 0.292429 -0.931106
vn 0.218007 0.292429 -0.931106
vn 0.218007 0.292429 -0.931106
vn -0.044974 0.440058 -0.896842
vn -0.044974 0.440058 -0.896842
vn -0.044974 0.440058 -0.896842
vn -0.044974 0.440058 -0.896842
vn -0.490122 0.201889 -0.847951
vn -0.490122 0.201889 -0.847951
vn -0.490122 0.201889 -0.847951
vn -0.490122 0.201889 -0.847951
vn -0.793161 -0.137184 -0.593360
vn -0.793161 -0.137184 -0.593359
vn -0.793162 -0.137184 -0.593360
vn -0.793162 -0.137184 -0.593360
vn -0.963615 -0.260874 0.058240
vn -0.963615 -0.260874 0.058240
vn -0.963615 -0.260874 0.058240
vn -0.963615 -0.260874 0.058240
vn -0.207841 -0.440352 0.873437
vn -0.207841 -0.440352 0.873437
vn -0.207841 -0.440352 0.873437
vn -0.207841 -0.440352 0.873437
vn 0.024215 -0.366917 0.929939
vn 0.024215 -0.366917 0.929938
vn 0.024215 -0.366917 0.929938
vn 0.024215 -0.366917 0.929939
vn 0.570498 -0.186663 0.799805
vn 0.570498 -0.186663 0.799805
vn 0.570498 -0.186663 0.799805
vn 0.570498 -0.186663 0.799805
vn 0.970213 -0.018831 0.241521
vn 0.970213 -0.018831 0.241521
vn 0.970213 -0.018831 0.241521
vn 0.970213 -0.018831 0.241521
vn 0.988059 0.096803 -0.119868
vn 0.988059 0.096803 -0.119868
vn 0.988059 0.096803 -0.119868
vn 0.988059 0.096803 -0.119868
vn 0.100629 0.435126 -0.894729
vn 0.100629 0.435126 -0.894729
vn 0.100629 0.435126 -0.894729
vn 0.100629 0.435126 -0.894729
vn -0.013419 0.396408 -0.917977
vn -0.013419 0.396408 -0.917977
vn -0.013419 0.396408 -0.917977
vn -0.013419 0.396408 -0.917977
vn -0.193532 0.141872 -0.970782
vn -0.193532 0.141872 -0.970782
vn -0.193532 0.141872 -0.970782
vn -0.193532 0.141872 -0.970782
vn -0.758019 -0.142939 -0.636377
vn -0.758019 -0.142939 -0.636377
vn -0.758019 -0.142939 -0.636377
vn -0.758019 -0.142939 -0.636377
vn -0.989968 0.088277 0.110317
vn -0.989968 0.088277 0.110317
vn -0.989968 0.088277 0.110317
vn -0.989968 0.088277 0.110317
vn -0.425322 0.241546 0.872214
vn -0.425322 0.241546 0.872214
vn -0.425322 0.241546 0.872214
vn -0.425322 0.241546 0.872214
vn 0.053156 0.101471 0.993417
vn 0.053156 0.101471 0.993418
vn 0.053156 0.101471 0.993418
vn 0.053156 0.101471 0.993418
vn 0.623861 0.015732 0.781377
vn 0.623861 0.015732 0.781377
vn 0.623861 0.015732 0.781377
vn 0.623861 0.015732 0.781377
vn 0.995592 0.074691 0.056724
vn 0.995592 0.074691 0.056724
vn 0.995592 0.074691 0.056724
vn 0.995592 0.074691 0.056724
vn 0.891013 0.346150 -0.293727
vn 0.891013 0.346150 -0.293727
vn 0.891013 0.346150 -0.293727
vn 0.891013 0.346150 -0.293727
vn 0.113258 0.310015 -0.943962
vn 0.113258 0.310015 -0.943962
vn 0.113258 0.310015 -0.943962
vn 0.113258 0.310015 -0.943962
vn 0.082960 0.173754 -0.981289
vn 0.082960 0.173754 -0.981288
vn 0.082960 0.173754 -0.981288
vn 0.082960 0.173754 -0.981288
vn -0.053377 0.066761 -0.996340
vn -0.053377 0.066761 -0.996340
vn -0.053377 0.066761 -0.996340
vn -0.053377 0.066761 -0.996340
vn -0.771359 0.056628 -0.633875
vn -0.771359 0.056628 -0.633875
vn -0.771359 0.056628 -0.633875
vn -0.771359 0.056628 -0.633875
vn -0.874076 0.430733 0.224633
vn -0.874076 0.430733 0.224634
vn -0.874076 0.430733 0.224634
vn -0.874076 0.430733 0.224633
vn -0.391807 0.611703 0.687246
vn -0.391807 0.611703 0.687246
vn -0.391807 0.611703 0.687246
vn -0.391807 0.611703 0.687246
vn -0.082755 0.496733 0.863949
vn -0.082755 0.496733 0.863949
vn -0.082755 0.496733 0.863949
vn -0.082755 0.496733 0.863949
vn 0.527706 0.300426 0.794526
vn 0.527706 0.300426 0.794526
vn 0.527706 0.300426 0.794526
vn 0.527706 0.300426 0.794526
vn 0.983856 0.161842 -0.076384
vn 0.983856 0.161842 -0.076384
vn 0.983856 0.161842 -0.076384
vn 0.983856 0.161842 -0.076384
vn 0.725523 0.353648 -0.590381
vn 0.725523 0.353648 -0.590381
vn 0.725523 0.353648 -0.590381
vn 0.725523 0.353648 -0.590381
vn 0.092639 0.557514 -0.824982
vn 0.092639 0.557514 -0.824982
vn 0.092639 0.557514 -0.824982
vn 0.092639 0.557514 -0.824982
vn 0.159231 0.515139 -0.842186
vn 0.159231 0.515139 -0.842186
vn 0.159231 0.515139 -0.842186
vn 0.159231 0.515139 -0.842186
vn 0.028018 0.525726 -0.850192
vn 0.028018 0.525726 -0.850192
vn 0.028018 0.525726 -0.850192
vn 0.028018 0.525726 -0.850192
vn -0.489220 0.769003 -0.411459
vn -0.489220 0.769003 -0.411459
vn -0.489220 0.769003 -0.411459
vn -0.489220 0.769003 -0.411459
vn -0.435304 0.858820 0.270073
vn -0.435304 0.858820 0.270073
vn -0.435304 0.858820 0.270073
vn -0.435304 0.858820 0.270073
vn -0.225308 0.870769 0.437033
vn -0.225308 0.870769 0.437033
vn -0.225308 0.870769 0.437033
vn -0.225308 0.870769 0.437033
vn -0.278272 0.847219 0.452532
vn -0.278272 0.847219 0.452532
vn -0.278272 0.847219 0.452532
vn -0.278272 0.847219 0.452532
vn -0.013389 0.858263 0.513036
vn -0.013389 0.858263 0.513036
vn -0.013389 0.858263 0.513036
vn -0.013389 0.858263 0.513036
vn 0.527313 0.821625 -0.216504
vn 0.527313 0.821625 -0.216504
vn 0.527313 0.821625 -0.216503
vn 0.527313 0.821625 -0.216503
vn 0.289319 0.625752 -0.724382
vn 0.289319 0.625752 -0.724382
vn 0.289319 0.625752 -0.724382
vn 0.289319 0.625752 -0.724382
vn -0.110239 0.946197 -0.304234
vn -0.110239 0.946197 -0.304234
vn -0.110239 0.946197 -0.304234
vn -0.110239 0.946197 -0.304234
vn 0.100027 0.972433 -0.210638
vn 0.100027 0.972433 -0.210638
vn 0.100027 0.972433 -0.210638
vn 0.100027 0.972433 -0.210638
vn 0.137750 0.969143 -0.204418
vn 0.137750 0.969143 -0.204418
vn 0.137750 0.969143 -0.204418
vn 0.137750 0.969143 -0.204418
vn 0.048971 0.998208 -0.034404
vn 0.048971 0.998208 -0.034404
vn 0.048971 0.998208 -0.034404
vn 0.048971 0.998208 -0.034404
vn 0.024847 0.984912 0.171261
vn 0.024847 0.984912 0.171261
vn 0.024847 0.984912 0.171261
vn 0.024847 0.984912 0.171261
vn -0.025414 0.990129 0.137835
vn -0.025414 0.990129 0.137835
vn -0.025414 0.990129 0.137835
vn -0.025414 0.990129 0.137835
vn -0.307503 0.951357 0.019041
vn -0.307503 0.951356 0.019041
vn -0.307503 0.951357 0.019041
vn -0.307503 0.951356 0.019041
vn -0.455596 0.889708 0.029192
vn -0.455596 0.889708 0.029192
vn -0.455596 0.889708 0.029192
vn -0.455596 0.889708 0.029192
vn -0.348065 0.919605 -0.182148
vn -0.348065 0.919605 -0.182148
vn -0.348065 0.919605 -0.182148
vn -0.348065 0.919605 -0.182148
vn -0.275404 0.869061 -0.410958
vn -0.275404 0.869061 -0.410958
vn -0.275404 0.869061 -0.410958
vn -0.275404 0.869061 -0.410958
vn -0.065279 -0.997647 0.020939
vn -0.065279 -0.997647 0.020939
vn -0.065279 -0.997647 0.020939
vn -0.052284 -0.998288 0.026234
vn -0.052284 -0.998288 0.026234
vn -0.052284 -0.998288 0.026234
vn -0.003782 -0.999956 0.008556
vn -0.003782 -0.999956 0.008556
vn -0.003782 -0.999956 0.008556
vn -0.056173 -0.993962 0.094260
vn -0.056173 -0.993962 0.094260
vn -0.056173 -0.993962 0.094260
vn -0.039436 -0.953542 0.298668
vn -0.039436 -0.953542 0.298668
vn -0.039436 -0.953542 0.298668
vn -0.027113 -0.949011 0.314074
vn -0.027113 -0.949011 0.314074
vn -0.027113 -0.949011 0.314074
vn -0.151816 -0.950724 0.270326
vn -0.151816 -0.950724 0.270326
vn -0.151816 -0.950724 0.270326
vn -0.160124 -0.948778 0.272361
vn -0.160124 -0.948778 0.272361
vn -0.160124 -0.948778 0.272361
vn -0.056473 -0.987867 0.144674
vn -0.056473 -0.987867 0.144674
vn -0.056473 -0.987867 0.144674
vn -0.051780 -0.997714 0.043425
vn -0.051780 -0.997714 0.043425
vn -0.051780 -0.997714 0.043425
vn -0.187107 0.977253 -0.099840
vn -0.187107 0.977253 -0.099840
vn -0.187107 0.977253 -0.099840
vn 0.062627 0.997914 -0.015642
vn 0.062627 0.997914 -0.015642
vn 0.062627 0.997914 -0.015642
vn 0.135163 0.988780 -0.063605
vn 0.135163 0.988780 -0.063605
vn 0.135163 0.988780 -0.063605
vn 0.085915 0.996208 0.013702
vn 0.085915 0.996208 0.013702
vn 0.085915 0.996208 0.013702
vn 0.058959 0.987684 0.144928
vn 0.058959 0.987684 0.144928
vn 0.058959 0.987684 0.144928
vn 0.015615 0.998917 0.043830
vn 0.015615 0.998917 0.043830
vn 0.015615 0.998917 0.043830
vn -0.248515 0.968326 -0.024195
vn -0.248515 0.968326 -0.024195
vn -0.248515 0.968326 -0.024195
vn -0.392516 0.917258 0.067593
vn -0.392516 0.917258 0.067593
vn -0.392516 0.917258 0.067593
vn -0.297617 0.946497 -0.124772
vn -0.297617 0.946497 -0.124772
vn -0.297617 0.946497 -0.124772
vn -0.286554 0.907418 -0.307374
vn -0.286554 0.907418 -0.307374
vn -0.286554 0.907418 -0.307374
s off
g pSphere1
usemtl lambert2SG
f 1/1/1 2/2/2 12/13/3 11/12/4
f 2/2/5 3/3/6 13/14/7 12/13/8
f 3/3/9 4/4/10 14/15/11 13/14/12
f 4/4/13 5/5/14 15/16/15 14/15/16
f 5/5/17 6/6/18 16/17/19 15/16/20
f 6/6/21 7/7/22 17/18/23 16/17/24
f 7/7/25 8/8/26 18/19/27 17/18/28
f 8/8/29 9/9/30 19/20/31 18/19/32
f 9/9/33 10/10/34 20/21/35 19/20/36
f 10/10/37 1/11/38 11/22/39 20/21/40
f 11/12/41 12/13/42 22/24/43 21/23/44
f 12/13/45 13/14/46 23/25/47 22/24/48
f 13/14/49 14/15/50 24/26/51 23/25/52
f 14/15/53 15/16/54 25/27/55 24/26/56
f 15/16/57 16/17/58 26/28/59 25/27/60
f 16/17/61 17/18/62 27/29/63 26/28/64
f 17/18/65 18/19/66 28/30/67 27/29/68
f 18/19/69 19/20/70 29/31/71 28/30/72
f 19/20/73 20/21/74 30/32/75 29/31/76
f 20/21/77 11/22/78 21/33/79 30/32/80
f 21/23/81 22/24/82 32/35/83 31/34/84
f 22/24/85 23/25/86 33/36/87 32/35/88
f 23/25/89 24/26/90 34/37/91 33/36/92
f 24/26/93 25/27/94 35/38/95 34/37/96
f 25/27/97 26/28/98 36/39/99 35/38/100
f 26/28/101 27/29/102 37/40/103 36/39/104
f 27/29/105 28/30/106 38/41/107 37/40/108
f 28/30/109 29/31/110 39/42/111 38/41/112
f 29/31/113 30/32/114 40/43/115 39/42/116
f 30/32/117 21/33/118 31/44/119 40/43/120
f 31/34/121 32/35/122 42/46/123 41/45/124
f 32/35/125 33/36/126 43/47/127 42/46/128
f 33/36/129 34/37/130 44/48/131 43/47/132
f 34/37/133 35/38/134 45/49/135 44/48/136
f 35/38/137 36/39/138 46/50/139 45/49/140
f 36/39/141 37/40/142 47/51/143 46/50/144
f 37/40/145 38/41/146 48/52/147 47/51/148
f 38/41/149 39/42/150 49/53/151 48/52/152
f 39/42/153 40/43/154 50/54/155 49/53/156
f 40/43/157 31/44/158 41/55/159 50/54/160
f 41/45/161 42/46/162 52/57/163 51/56/164
f 42/46/165 43/47/166 53/58/167 52/57/168
f 43/47/169 44/48/170 54/59/171 53/58/172
f 44/48/173 45/49/174 55/60/175 54/59/176
f 45/49/177 46/50/178 56/61/179 55/60/180
f 46/50/181 47/51/182 57/62/183 56/61/184
f 47/51/185 48/52/186 58/63/187 57/62/188
f 48/52/189 49/53/190 59/64/191 58/63/192
f 49/53/193 50/54/194 60/65/195 59/64/196
f 50/54/197 41/55/198 51/66/199 60/65/200
f 51/56/201 52/57/202 62/68/203 61/67/204
f 52/57/205 53/58/206 63/69/207 62/68/208
f 53/58/209 54/59/210 64/70/211 63/69/212
f 54/59/213 55/60/214 65/71/215 64/70/216
f 55/60/217 56/61/218 66/72/219 65/71/220
f 56/61/221 57/62/222 67/73/223 66/72/224
f 57/62/225 58/63/226 68/74/227 67/73/228
f 58/63/229 59/64/230 69/75/231 68/74/232
f 59/64/233 60/65/234 70/76/235 69/75/236
f 60/65/237 51/66/238 61/77/239 70/76/240
f 61/67/241 62/68/242 72/79/243 71/78/244
f 62/68/245 63/69/246 73/80/247 72/79/248
f 63/69/249 64/70/250 74/81/251 73/80/252
f 64/70/253 65/71/254 75/82/255 74/81/256
f 65/71/257 66/72/258 76/83/259 75/82/260
f 66/72/261 67/73/262 77/84/263 76/83/264
f 67/73/265 68/74/266 78/85/267 77/84/268
f 68/74/269 69/75/270 79/86/271 78/85/272
f 69/75/273 70/76/274 80/87/275 79/86/276
f 70/76/277 61/77/278 71/88/279 80/87/280
f 71/78/281 72/79/282 82/90/283 81/89/284
f 72/79/285 73/80/286 83/91/287 82/90/288
f 73/80/289 74/81/290 84/92/291 83/91/292
f 74/81/293 75/82/294 85/93/295 84/92/296
f 75/82/297 76/83/298 86/94/299 85/93/300
f 76/83/301 77/84/302 87/95/303 86/94/304
f 77/84/305 78/85/306 88/96/307 87/95/308
f 78/85/309 79/86/310 89/97/311 88/96/312
f 79/86/313 80/87/314 90/98/315 89/97/316
f 80/87/317 71/88/318 81/99/319 90/98/320
f 2/2/321 1/1/322 91/100/323
f 3/3/324 2/2/325 91/101/326
f 4/4/327 3/3/328 91/102/329
f 5/5/330 4/4/331 91/103/332
f 6/6/333 5/5/334 91/104/335
f 7/7/336 6/6/337 91/105/338
f 8/8/339 7/7/340 91/106/341
f 9/9/342 8/8/343 91/107/344
f 10/10/345 9/9/346 91/108/347
f 1/11/348 10/10/349 91/109/350
f 81/89/351 82/90/352 92/110/353
f 82/90/354 83/91/355 92/111/356
f 83/91/357 84/92/358 92/112/359
f 84/92/360 85/93/361 92/113/362
f 85/93/363 86/94/364 92/114/365
f 86/94/366 87/95/367 92/115/368
f 87/95/369 88/96/370 92/116/371
f 88/96/372 89/97/373 92/117/374
f 89/97/375 90/98/376 92/118/377
f 90/98/378 81/99/379 92/119/380
